# xmcd
#
# Track frame offsets:
#	150
#	16261
#	35626
#	55293
#	71074
#	87286
#	100644
#	121569
#	138145
#	160465
#	189351
#	211414
#	240885
#	263927
#	285675
#	305827
#
# Disc length: 4301 seconds
#
# Revision: 1
# Processed by: cddbd v1.4b42PL1 Copyright (c) Steve Scherf et al.
# Submitted via: audiograbber 1.80.04
#
DISCID=d910cb10
DTITLE=Eagles - The very Best of the Eagles
DYEAR=1900
DGENRE=Country
TTITLE0=Take it easy
TTITLE1=Witchy Woman
TTITLE2=Peaceful easy Feeling
TTITLE3=D 
TTITLE4=Desperado
TTITLE5=Tequila Sunrise
TTITLE6=Best of my Love
TTITLE7=James Dean
TTITLE8=I can't tell you why
TTITLE9=Lyin' eyes
TTITLE10=One of these Nights
TTITLE11=Hotel California
TTITLE12=New Kid in Town
TTITLE13=Life in the fast lane
TTITLE14=Heartache tonight
TTITLE15=The long Run
EXTD=
EXTT0=
EXTT1=
EXTT2=
EXTT3=
EXTT4=
EXTT5=
EXTT6=
EXTT7=
EXTT8=
EXTT9=
EXTT10=
EXTT11=
EXTT12=
EXTT13=
EXTT14=
EXTT15=
PLAYORDER=
